<svg width="680" height="520" viewBox="0 0 680 520" xmlns="http://www.w3.org/2000/svg">
  <rect width="680" height="520" fill="#ffffff"/>
  <defs>
    <marker id="arr" viewBox="0 0 10 10" refX="8" refY="5" markerWidth="6" markerHeight="6" orient="auto-start-reverse">
      <path d="M2 1L8 5L2 9" fill="none" stroke="#888780" stroke-width="1.5"/>
    </marker>
    <marker id="arr-green" viewBox="0 0 10 10" refX="8" refY="5" markerWidth="6" markerHeight="6" orient="auto-start-reverse">
      <path d="M2 1L8 5L2 9" fill="none" stroke="#0F6E56" stroke-width="1.5"/>
    </marker>
    <marker id="arr-red" viewBox="0 0 10 10" refX="8" refY="5" markerWidth="6" markerHeight="6" orient="auto-start-reverse">
      <path d="M2 1L8 5L2 9" fill="none" stroke="#D85A30" stroke-width="1.5"/>
    </marker>
  </defs>
  <rect x="265" y="18" width="150" height="44" rx="22" fill="#E6F1FB" stroke="#185FA5" stroke-width="1"/>
  <text x="340" y="45" text-anchor="middle" font-family="Arial" font-size="13" font-weight="bold" fill="#0C447C">Internet</text>
  <rect x="500" y="18" width="140" height="44" rx="8" fill="#FAECE7" stroke="#993C1D" stroke-width="1"/>
  <text x="570" y="36" text-anchor="middle" font-family="Arial" font-size="12" font-weight="bold" fill="#993C1D">Gmail SMTP</text>
  <text x="570" y="52" text-anchor="middle" font-family="Arial" font-size="10" fill="#993C1D">port 587 / TLS</text>
  <rect x="160" y="130" width="360" height="130" rx="16" fill="none" stroke="#888780" stroke-width="1" stroke-dasharray="6 4"/>
  <text x="172" y="148" font-family="Arial" font-size="10" fill="#888780">Windows host · VirtualBox · 16 Go RAM · 4 coeurs</text>
  <rect x="220" y="155" width="240" height="80" rx="12" fill="#E1F5EE" stroke="#0F6E56" stroke-width="2"/>
  <text x="340" y="178" text-anchor="middle" font-family="Arial" font-size="14" font-weight="bold" fill="#085041">srv-patch</text>
  <text x="340" y="196" text-anchor="middle" font-family="Arial" font-size="10" fill="#085041">WSL2 · Ubuntu 22.04 LTS · 192.168.56.1</text>
  <text x="340" y="212" text-anchor="middle" font-family="Arial" font-size="10" fill="#085041">Lynis · Ansible · Postfix · Cron</text>
  <rect x="40" y="370" width="170" height="68" rx="8" fill="#EEEDFE" stroke="#534AB7" stroke-width="1"/>
  <text x="125" y="393" text-anchor="middle" font-family="Arial" font-size="13" font-weight="bold" fill="#3C3489">srv-cible1</text>
  <text x="125" y="411" text-anchor="middle" font-family="Arial" font-size="10" fill="#3C3489">VM · Ubuntu 22.04</text>
  <text x="125" y="427" text-anchor="middle" font-family="Arial" font-size="10" fill="#3C3489">192.168.56.101</text>
  <rect x="255" y="370" width="170" height="68" rx="8" fill="#EEEDFE" stroke="#534AB7" stroke-width="1"/>
  <text x="340" y="393" text-anchor="middle" font-family="Arial" font-size="13" font-weight="bold" fill="#3C3489">srv-cible2</text>
  <text x="340" y="411" text-anchor="middle" font-family="Arial" font-size="10" fill="#3C3489">VM · Ubuntu 22.04</text>
  <text x="340" y="427" text-anchor="middle" font-family="Arial" font-size="10" fill="#3C3489">192.168.56.102</text>
  <rect x="470" y="370" width="170" height="68" rx="8" fill="#EEEDFE" stroke="#534AB7" stroke-width="1"/>
  <text x="555" y="393" text-anchor="middle" font-family="Arial" font-size="13" font-weight="bold" fill="#3C3489">srv-cible3</text>
  <text x="555" y="411" text-anchor="middle" font-family="Arial" font-size="10" fill="#3C3489">VM · Ubuntu 22.04</text>
  <text x="555" y="427" text-anchor="middle" font-family="Arial" font-size="10" fill="#3C3489">192.168.56.103</text>
  <line x1="340" y1="62" x2="340" y2="155" stroke="#888780" stroke-width="1" stroke-dasharray="5 3" marker-end="url(#arr)"/>
  <text x="354" y="108" font-family="Arial" font-size="10" fill="#888780">HTTP/HTTPS 80/443</text>
  <line x1="460" y1="195" x2="500" y2="50" stroke="#D85A30" stroke-width="1.5" marker-end="url(#arr-red)"/>
  <text x="468" y="130" font-family="Arial" font-size="10" fill="#993C1D">SMTP/TLS 587</text>
  <line x1="260" y1="235" x2="165" y2="370" stroke="#0F6E56" stroke-width="1.5" marker-end="url(#arr-green)"/>
  <line x1="340" y1="235" x2="340" y2="370" stroke="#0F6E56" stroke-width="1.5" marker-end="url(#arr-green)"/>
  <line x1="420" y1="235" x2="515" y2="370" stroke="#0F6E56" stroke-width="1.5" marker-end="url(#arr-green)"/>
  <text x="210" y="310" text-anchor="middle" font-family="Arial" font-size="11" font-weight="bold" fill="#0F6E56">SSH port 22</text>
  <rect x="40" y="462" width="12" height="12" rx="2" fill="#0F6E56"/>
  <text x="58" y="472" font-family="Arial" font-size="10" fill="#444441">SSH - Ansible + Lynis</text>
  <rect x="200" y="462" width="12" height="12" rx="2" fill="#D85A30"/>
  <text x="218" y="472" font-family="Arial" font-size="10" fill="#444441">SMTP/TLS - Postfix</text>
  <rect x="360" y="466" width="12" height="3" rx="1" fill="#888780"/>
  <text x="378" y="472" font-family="Arial" font-size="10" fill="#444441">HTTP/HTTPS - apt</text>
</svg>
